<svg width="34" height="34" viewBox="0 0 34 34" fill="none" xmlns="http://www.w3.org/2000/svg">
<path d="M12.6958 26.7904L13.1601 26.2014L12.6958 26.7904ZM17 7.7925L16.4596 8.3126C16.601 8.4595 16.7961 8.5425 17 8.5425C17.2039 8.5425 17.399 8.4595 17.5403 8.3126L17 7.7925ZM21.3042 26.7904L21.7685 27.3793L21.3042 26.7904ZM13.1601 26.2014C11.0314 24.5233 8.64894 22.845 6.76222 20.7205C4.90122 18.6249 3.58331 16.1547 3.58331 12.9442H2.08331C2.08331 16.6228 3.6125 19.4327 5.64066 21.7165C7.6431 23.9713 10.1918 25.7715 12.2315 27.3793L13.1601 26.2014ZM3.58331 12.9442C3.58331 9.78018 5.37161 7.11068 7.8379 5.98333C10.2569 4.87759 13.4642 5.20045 16.4596 8.3126L17.5403 7.2724C14.161 3.7614 10.2849 3.21551 7.21431 4.6191C4.19096 6.00108 2.08331 9.21898 2.08331 12.9442H3.58331ZM12.2315 27.3793C12.96 27.9537 13.7222 28.5498 14.4898 28.9983C15.2572 29.4468 16.1012 29.7916 17 29.7916V28.2916C16.482 28.2916 15.9095 28.0906 15.2466 27.7033C14.584 27.3161 13.9024 26.7866 13.1601 26.2014L12.2315 27.3793ZM21.7685 27.3793C23.8081 25.7715 26.3569 23.9713 28.3593 21.7165C30.3875 19.4327 31.9166 16.6228 31.9166 12.9442H30.4166C30.4166 16.1547 29.0987 18.6249 27.2377 20.7205C25.351 22.845 22.9685 24.5233 20.8399 26.2014L21.7685 27.3793ZM31.9166 12.9442C31.9166 9.21898 29.809 6.00108 26.7857 4.6191C23.715 3.21551 19.8389 3.7614 16.4596 7.2724L17.5403 8.3126C20.5358 5.20045 23.743 4.87759 26.1621 5.98333C28.6283 7.11068 30.4166 9.78018 30.4166 12.9442H31.9166ZM20.8399 26.2014C20.0975 26.7866 19.416 27.3161 18.7534 27.7033C18.0905 28.0906 17.5179 28.2916 17 28.2916V29.7916C17.8987 29.7916 18.7428 29.4468 19.5102 28.9983C20.2778 28.5498 21.04 27.9537 21.7685 27.3793L20.8399 26.2014Z" fill="#161117"/>
</svg>
